<svg width="25" height="25" xmlns="http://www.w3.org/2000/svg">
  <g fill="#323640" fill-rule="nonzero">
    <path d="M3.944 21.46a.39.39 0 0 1-.353-.557 9.452 9.452 0 0 1 3.42-3.935 9.396 9.396 0 0 1 5.136-1.52h.705a9.443 9.443 0 0 1 8.556 5.456.39.39 0 0 1-.708.33 8.69 8.69 0 0 0-7.85-5.005h-.705a8.691 8.691 0 0 0-7.85 5.005.382.382 0 0 1-.352.226Z"/>
    <path d="M12.5 16.23a5.34 5.34 0 0 1-3.797-1.572 5.347 5.347 0 0 1-1.572-3.797 5.34 5.34 0 0 1 1.572-3.797A5.347 5.347 0 0 1 12.5 5.492a5.34 5.34 0 0 1 3.797 1.572 5.347 5.347 0 0 1 1.572 3.797 5.34 5.34 0 0 1-1.572 3.797A5.347 5.347 0 0 1 12.5 16.23Zm0-9.96a4.593 4.593 0 0 0-4.588 4.589 4.593 4.593 0 0 0 4.588 4.588 4.594 4.594 0 0 0 4.588-4.588A4.593 4.593 0 0 0 12.5 6.271Z"/>
    <path d="M12.5 25a12.455 12.455 0 0 1-8.838-3.662A12.476 12.476 0 0 1 0 12.5a12.458 12.458 0 0 1 3.662-8.838A12.432 12.432 0 0 1 7.635.983 12.406 12.406 0 0 1 12.5 0a12.455 12.455 0 0 1 8.838 3.662A12.476 12.476 0 0 1 25 12.5a12.455 12.455 0 0 1-3.662 8.838A12.476 12.476 0 0 1 12.5 25Zm0-24.218C6.038.782.781 6.039.781 12.5c0 6.462 5.257 11.72 11.719 11.72s11.719-5.258 11.719-11.72C24.219 6.04 18.962.782 12.5.782Z"/>
  </g>
</svg>
